<?xml version="1.0" standalone="no"?>
<!DOCTYPE svg PUBLIC "-//W3C//DTD SVG 1.1//EN" "http://www.w3.org/Graphics/SVG/1.1/DTD/svg11.dtd" >
<svg xmlns="http://www.w3.org/2000/svg">
<metadata>
This is a custom SVG webfont generated by Font Squirrel.
Copyright   : C 2009 dot colon
Designer    : arro
</metadata>
<defs>
<font id="webfontJsxOUbD5" horiz-adv-x="1142" >
<font-face units-per-em="2048" ascent="1577" descent="-471" />
<missing-glyph horiz-adv-x="401" />
<glyph unicode=" "  horiz-adv-x="401" />
<glyph unicode="&#x09;" horiz-adv-x="401" />
<glyph unicode="&#xa0;" horiz-adv-x="401" />
<glyph unicode="!" horiz-adv-x="593" d="M459 141.5q0 -67.5 -47 -114.5t-115 -47t-115 47t-47 114.5t47 114.5t115 47t115 -47t47 -114.5zM412 406h-230l-16 983h262z" />
<glyph unicode="&#x22;" horiz-adv-x="823" d="M301 866h-201l-10 502q-2 35 25.5 54.5t81.5 19.5h151zM702 866h-200l-10 502q-2 35 25.5 54.5t80.5 19.5h152z" />
<glyph unicode="#" horiz-adv-x="1105" d="M1036 784h-209l-34 -223h186v-151h-213l-53 -338h-172l55 338h-174l-53 -338h-172l55 338h-182v151h206l37 223h-186v152h211l55 340h170l-55 -340h174l55 340h170l-55 -340h184v-152zM621 561l36 223h-174l-34 -223h172z" />
<glyph unicode="$" d="M983 446q0 -147 -91 -246.5t-247 -129.5v-213h-201v204q-170 14 -288 80l26 213q182 -82 344 -82q80 0 127 36t47 100q0 61 -45 97t-147 64q-166 47 -250 130t-84 221q0 125 76 212t207 123v236h200v-219q158 -12 271 -74l-29 -213q-143 74 -283 74q-70 0 -114.5 -27.5 t-44.5 -73.5q0 -57 36.5 -87.5t135.5 -59.5q178 -51 266 -137.5t88 -227.5z" />
<glyph unicode="%" horiz-adv-x="1740" d="M1290.5 676q147.5 0 246.5 -97.5t99 -251t-99 -250.5t-246.5 -97t-247 97t-99.5 250.5t99.5 251t247 97.5zM1290 180q49 0 83 39t34 108.5t-34 108.5t-83 39t-82.5 -39t-33.5 -108.5t33.5 -108.5t82.5 -39zM450.5 1368q147.5 0 247 -97t99.5 -251t-99.5 -251t-247 -97 t-247 97t-99.5 251t99.5 251t247 97zM450.5 872q49.5 0 83 39t33.5 109t-33.5 108.5t-83 38.5t-83 -38.5t-33.5 -108.5t33.5 -109t83 -39zM1241 1409h201l-942 -1450h-201z" />
<glyph unicode="&#x26;" horiz-adv-x="1484" d="M1440 0h-369l-70 90h-4q-168 -111 -407 -110q-233 0 -374.5 108.5t-141.5 294.5q0 135 82 231.5t247 186.5v4q-154 141 -153 297q0 137 114.5 222t280.5 85q164 0 271.5 -91t107.5 -218q0 -201 -246 -338v-4l258 -301h4q63 84 70 239h272q-12 -262 -172 -436zM637 1196 q-43 0 -71.5 -29.5t-28.5 -74.5q0 -84 92 -156h4q104 63 104 147q0 51 -27.5 82t-72.5 31zM618 199q135 0 230 67v4l-293 361h-4q-88 -47 -135 -99.5t-47 -134.5q0 -88 70 -143t179 -55z" />
<glyph unicode="'" horiz-adv-x="421" d="M301 866h-201l-10 502q-2 35 25.5 54.5t81.5 19.5h151z" />
<glyph unicode="(" horiz-adv-x="636" d="M387 628.5q0 -411.5 176 -821.5h-201q-94 158 -157.5 376t-63.5 445.5t63.5 445.5t157.5 376h201q-176 -410 -176 -821.5z" />
<glyph unicode=")" horiz-adv-x="636" d="M250 628.5q0 411.5 -176 821.5h200q94 -158 158 -376t64 -445.5t-63.5 -445.5t-158.5 -376h-200q176 410 176 821.5z" />
<glyph unicode="*" horiz-adv-x="1052" d="M416 1380h221l-43 -321h8l287 137l69 -209l-317 -61v-4l221 -232l-180 -131l-154 281h-4l-153 -281l-181 131l222 232v4l-318 61l70 209l287 -137h8z" />
<glyph unicode="+" horiz-adv-x="1216" d="M723 625h401v-201h-401v-424h-229v424h-402v201h402v424h229v-424z" />
<glyph unicode="," horiz-adv-x="534" d="M123 156q25 100 147 100h170q-88 -268 -215 -567l-243 -27q92 287 141 494z" />
<glyph unicode="-" horiz-adv-x="802" d="M684 625v-201h-565v201h565z" />
<glyph unicode="." horiz-adv-x="512" d="M256 303q68 0 115 -47t47 -114.5t-47 -114.5t-115 -47t-115 47t-47 114.5t47 114.5t115 47z" />
<glyph unicode="/" horiz-adv-x="870" d="M631 1434h250l-641 -1510h-250z" />
<glyph unicode="0" d="M571.5 1368q243.5 0 387 -188.5t143.5 -506t-143.5 -505.5t-387 -188t-387 188t-143.5 505.5t143.5 506t387 188.5zM571.5 199q122.5 0 179 114.5t56.5 360.5t-56.5 360.5t-179 114.5t-179 -114.5t-56.5 -360.5t56.5 -360.5t179 -114.5z" />
<glyph unicode="1" d="M662 1348h137v-1348h-275v1034l-291 -96l-26 213z" />
<glyph unicode="2" d="M684 434l-217 -211v-4h567v-219h-915v215l231 236q244 250 314.5 342t70.5 178q0 80 -57 129t-164 49q-129 0 -289 -64l-28 218q184 66 372 65q207 0 334 -101.5t127 -265.5q0 -147 -73.5 -262t-272.5 -305z" />
<glyph unicode="3" d="M465 -20q-227 0 -375 79l29 217q168 -78 340 -77q119 0 197.5 45t78.5 133q0 174 -311 190v213q123 2 196.5 53.5t73.5 139.5q0 82 -62.5 129t-158.5 47q-137 0 -270 -55l-27 213q201 61 365 61q213 0 330.5 -86t117.5 -233q0 -131 -88 -214t-217 -110v-4 q156 -25 251 -109t95 -219q0 -190 -166 -301.5t-399 -111.5z" />
<glyph unicode="4" d="M932 1348v-852h203v-220h-203v-276h-275v276h-637v224l510 848h402zM657 819q0 166 11 297h-4q-80 -182 -355 -616v-4h348v323z" />
<glyph unicode="5" d="M426 823q63 39 164 39q211 0 336 -113.5t125 -299.5q0 -227 -164 -348t-402 -121q-219 0 -376 75l28 217q182 -74 352 -73q121 0 194 60t73 165q0 92 -56.5 151.5t-160.5 59.5q-80 0 -142 -43l-241 6l24 750h809v-220h-557l-12 -305h6z" />
<glyph unicode="6" d="M559 -25q-203 0 -337 141.5t-134 405.5q0 348 229.5 587t561.5 255l28 -217q-197 -16 -332 -120.5t-188 -276.5h4q35 43 104.5 67.5t135.5 24.5q190 0 309 -116t119 -288q0 -217 -145.5 -340t-354.5 -123zM567 633q-72 0 -128 -45t-56 -115q0 -123 55.5 -198.5 t139.5 -75.5q80 0 133 59t53 150q0 106 -52.5 165.5t-144.5 59.5z" />
<glyph unicode="7" d="M1059 1348v-222l-545 -1126h-283l551 1124v4h-657v220h934z" />
<glyph unicode="8" d="M784 709q270 -127 271 -332q0 -193 -143.5 -295t-344.5 -102q-211 0 -346 100t-135 276q0 227 287 334v4q-115 61 -171.5 135t-56.5 181q0 145 122 251.5t320.5 106.5t317.5 -99.5t119 -242.5q0 -195 -240 -313v-4zM432 1006q0 -115 156 -195q152 74 151 199 q0 63 -44 105t-113 42q-68 0 -109 -45t-41 -106zM571 199q86 0 139.5 50t53.5 128q0 76 -45 128t-152 97q-96 -35 -143 -82t-47 -123q0 -86 54 -142t140 -56z" />
<glyph unicode="9" d="M584 1364q203 0 337 -141.5t134 -405.5q0 -348 -229.5 -586.5t-561.5 -255.5l-28 218q197 16 331.5 120.5t188.5 276.5h-4q-35 -43 -104.5 -67.5t-135.5 -24.5q-190 0 -309 115.5t-119 287.5q0 217 145.5 340t354.5 123zM575 707q72 0 128.5 45t56.5 114q0 123 -55.5 199 t-139.5 76q-80 0 -133 -59.5t-53 -149.5q0 -106 52 -165.5t144 -59.5z" />
<glyph unicode=":" horiz-adv-x="512" d="M256 303q68 0 115 -47t47 -114.5t-47 -114.5t-115 -47t-115 47t-47 114.5t47 114.5t115 47zM256 688q-68 0 -115 47t-47 115t47 115t115 47t115 -47t47 -115t-47 -115t-115 -47z" />
<glyph unicode=";" horiz-adv-x="552" d="M123 156q25 100 147 100h170q-88 -268 -215 -567l-243 -27q92 287 141 494zM297 688q-68 0 -115 47t-47 115t47 115t115 47t115 -47t47 -115t-47 -115t-115 -47z" />
<glyph unicode="&#x3c;" horiz-adv-x="962" d="M283 539l571 -271v-258l-791 402v258l791 401v-258l-571 -268v-6z" />
<glyph unicode="=" horiz-adv-x="1361" d="M1221 643h-1080v201h1080v-201zM1221 205h-1080v201h1080v-201z" />
<glyph unicode="&#x3e;" horiz-adv-x="962" d="M680 539v6l-571 268v258l790 -401v-258l-790 -402v258z" />
<glyph unicode="?" horiz-adv-x="905" d="M532 141.5q0 67.5 -47 114.5t-114.5 47t-114.5 -47t-47 -114.5t47 -114.5t114.5 -47t114.5 47t47 114.5zM831 1065q0 -109 -49 -190.5t-184 -235.5q-57 -66 -77.5 -109t-20.5 -94v-30h-267v32q0 96 35 172t123 168q145 152 146 266q0 61 -49.5 103.5t-147.5 42.5 q-141 0 -258 -66l-29 213q158 72 367 72q184 0 297.5 -96t113.5 -248z" />
<glyph unicode="@" horiz-adv-x="1841" d="M1044 1223q272 0 447.5 -171t175.5 -417q0 -250 -121 -391.5t-307 -141.5q-203 0 -242 142h-4q-76 -156 -237 -156q-117 0 -195 84t-78 211q0 233 140.5 366.5t382.5 133.5q162 0 284 -58l-61 -407q-25 -166 92 -166q76 0 127 96t51 234q0 225 -133 357t-393 132 q-276 0 -484 -185.5t-208 -469.5q0 -256 146 -404.5t396 -148.5q207 0 400 104l18 -141q-213 -115 -489 -115q-258 0 -448.5 184.5t-190.5 471.5q0 254 131 452.5t341.5 301t458.5 102.5zM1012 508l24 170q-31 10 -71 10q-102 0 -169 -69.5t-67 -200.5q0 -61 31 -98t76 -37 q143 0 176 225z" />
<glyph unicode="A" horiz-adv-x="1294" d="M979 0l-129 408h-420l-127 -408h-274l479 1389h283l479 -1389h-291zM637 1135q-51 -219 -143 -508h292q-92 289 -143 508h-6z" />
<glyph unicode="B" horiz-adv-x="1169" d="M811 743q274 -84 274 -315q0 -211 -156.5 -324.5t-416.5 -113.5q-168 0 -377 28v1350q246 31 410 31q238 0 371 -96.5t133 -251.5q0 -106 -67 -186.5t-171 -116.5v-5zM410 817h135q205 0 205 180q0 182 -201 183q-76 0 -139 -11v-352zM551 606h-141v-389q74 -8 151 -8 q109 0 169.5 48t60.5 142q0 207 -240 207z" />
<glyph unicode="C" horiz-adv-x="1280" d="M57 682q0 334 221.5 530.5t546.5 196.5q244 0 410 -66l-29 -219q-170 66 -358 66q-229 0 -362.5 -122t-133.5 -374q0 -240 131 -367.5t344 -127.5q193 0 363 69l29 -221q-170 -68 -447 -67q-309 0 -512 182t-203 520z" />
<glyph unicode="D" horiz-adv-x="1460" d="M135 1366q225 33 447 33q383 0 602 -165t219 -484q0 -367 -237.5 -563.5t-610.5 -196.5q-246 0 -420 26v1350zM410 1167v-952q98 -6 204 -6q213 0 353.5 125t140.5 375q0 227 -136 349t-374 122q-96 -1 -188 -13z" />
<glyph unicode="E" horiz-adv-x="1019" d="M410 219h553v-219h-828v1389h809v-220h-534v-342h464v-219h-464v-389z" />
<glyph unicode="F" horiz-adv-x="962" d="M410 0h-275v1389h809v-220h-534v-364h464v-219h-464v-586z" />
<glyph unicode="G" horiz-adv-x="1378" d="M842 1190q-225 0 -357.5 -126t-132.5 -370q0 -242 121 -368.5t315 -126.5q133 0 207 26v310h-250v219h525v-693q-207 -82 -498 -81q-313 0 -514 175t-201 517q0 229 106.5 399t277.5 254t378 84q244 0 410 -66l-29 -219q-182 66 -358 66z" />
<glyph unicode="H" horiz-adv-x="1447" d="M1038 1389h275v-1389h-275v606h-628v-606h-275v1389h275v-564h628v564z" />
<glyph unicode="I" horiz-adv-x="544" d="M410 0h-275v1389h275v-1389z" />
<glyph unicode="J" horiz-adv-x="780" d="M676 487q0 -508 -512 -507q-111 0 -197 28l29 213q76 -23 166 -22q137 0 188 68.5t51 207.5v914h275v-902z" />
<glyph unicode="K" horiz-adv-x="1218" d="M1221 1389l-590 -652l635 -737h-377l-432 545h-6l-41 -49v-496h-275v1389h275v-568h8l459 568h344z" />
<glyph unicode="L" horiz-adv-x="1050" d="M135 1389h275v-1178h624v-211h-899v1389z" />
<glyph unicode="M" horiz-adv-x="1742" d="M1225 1339h336l47 -1339h-275l-12 670v52q0 153 10 275h-6q-35 -170 -92 -327l-234 -629h-286l-228 629q-70 193 -90 319h-6q12 -98 12 -222q0 -47 -2 -97l-12 -670h-258l47 1339h336l238 -669q102 -287 112 -400h6q10 104 115 400z" />
<glyph unicode="N" horiz-adv-x="1466" d="M1337 1389v-1389h-387l-405 754q-80 147 -166 364h-6q14 -252 14 -364v-754h-258v1389h389l391 -734q96 -176 178 -387h7q-14 182 -15 387v734h258z" />
<glyph unicode="O" horiz-adv-x="1540" d="M770 1407q309 0 511 -204t202 -509t-202 -509.5t-511 -204.5t-511 204.5t-202 509.5t202 509t511 204zM770 199q182 0 297 129t115 366.5t-114 365.5t-298 128t-298 -128t-114 -365.5t115 -366.5t297 -129z" />
<glyph unicode="P" horiz-adv-x="1093" d="M410 1171v-452q37 -2 108 -2q113 0 183.5 57t70.5 176q0 113 -63.5 171.5t-171.5 58.5q-68 -1 -127 -9zM135 0v1364q195 35 400 35q254 0 393 -112.5t139 -305.5q0 -236 -156.5 -364t-388.5 -128q-78 0 -112 5v-494h-275z" />
<glyph unicode="Q" horiz-adv-x="1540" d="M1483 694q0 -221 -114 -397t-304 -258l78 -291l-266 -65l-72 301q-20 -4 -35 -4q-309 0 -511 204.5t-202 509.5t202 509t511 204t511 -204t202 -509zM770 199q182 0 297 129t115 366.5t-114 365.5t-298 128t-298 -128t-114 -365.5t115 -366.5t297 -129z" />
<glyph unicode="R" d="M410 772h129q109 0 168 53.5t59 153.5q0 199 -213 199q-102 0 -143 -9v-397zM543 561h-133v-561h-275v1364q188 33 420 33q256 0 391 -101.5t135 -263.5q0 -131 -76.5 -215t-189.5 -121v-4q76 -31 120 -98.5t71 -190.5q41 -182 110 -403h-303q-53 199 -90 381 q-20 96 -60 138t-120 42z" />
<glyph unicode="S" horiz-adv-x="1116" d="M145 999q0 197 145.5 303.5t354.5 106.5q207 0 330 -49l-29 -217q-127 47 -284 47q-104 0 -167 -41t-63 -119q0 -82 53.5 -126t161.5 -75q186 -53 280.5 -143t94.5 -258q0 -213 -162 -330.5t-403 -117.5q-215 0 -365 53l29 221q180 -55 352 -55q119 0 190.5 48t71.5 136 q0 82 -51 129t-158 76q-180 51 -280.5 145t-100.5 266z" />
<glyph unicode="T" horiz-adv-x="1208" d="M1178 1389v-220h-439v-1169h-274v1169h-434v220h1147z" />
<glyph unicode="U" horiz-adv-x="1316" d="M1194 477q0 -238 -151.5 -367.5t-383.5 -129.5q-227 0 -378.5 123.5t-151.5 334.5v951h274v-930q0 -127 75 -194.5t186 -67.5q117 0 194.5 64.5t77.5 197.5v930h258v-912z" />
<glyph unicode="V" horiz-adv-x="1214" d="M958 1389h275l-479 -1389h-283l-479 1389h291l182 -572q100 -322 153 -557h7q72 305 153 557z" />
<glyph unicode="W" horiz-adv-x="1865" d="M1606 1389h270l-416 -1389h-276l-166 662q-53 221 -78 452h-6q-23 -233 -76 -450l-168 -664h-274l-416 1389h287l176 -662q76 -256 90 -463h6q14 197 82 461l168 664h274l168 -662q63 -256 82 -461h6q14 188 88 461z" />
<glyph unicode="X" horiz-adv-x="1124" d="M1110 1389l-399 -670l430 -719h-324l-260 481h-4l-258 -481h-303l420 702l-410 687h324l237 -447h4l240 447h303z" />
<glyph unicode="Y" horiz-adv-x="1146" d="M870 1389h295l-444 -793v-596h-275v575l-454 814h315l279 -562h4z" />
<glyph unicode="Z" horiz-adv-x="1130" d="M360 211h725v-211h-1036v229l688 945v4h-622v211h934v-228l-689 -946v-4z" />
<glyph unicode="[" horiz-adv-x="712" d="M655 1233h-258v-1210h258v-201h-487v1612h487v-201z" />
<glyph unicode="\" horiz-adv-x="870" d="M240 1434l641 -1510h-250l-641 1510h250z" />
<glyph unicode="]" horiz-adv-x="712" d="M57 1233v201h488v-1612h-488v201h258v1210h-258z" />
<glyph unicode="^" horiz-adv-x="1165" d="M711 1380l360 -798h-252l-233 557h-6l-236 -557h-250l361 798h256z" />
<glyph unicode="_" horiz-adv-x="1185" d="M1133 -293h-1080v201h1080v-201z" />
<glyph unicode="`" horiz-adv-x="641" d="M47 1442h191q43 0 67 -41q68 -119 201 -324l-209 -10q-123 154 -250 375z" />
<glyph unicode="a" horiz-adv-x="1054" d="M520 1020q207 0 310.5 -93t103.5 -263v-664h-268l-7 125h-4q-90 -145 -272 -145q-135 0 -228.5 93t-93.5 238q0 164 133.5 250t335.5 86q43 0 129 -10v18q0 74 -52 114t-146 40q-125 0 -262 -59l-29 204q166 66 350 66zM659 457v16q-57 8 -110 8q-201 0 -201 -149 q0 -63 36 -102.5t99 -39.5q176 1 176 267z" />
<glyph unicode="b" horiz-adv-x="1234" d="M414 883q74 74 146.5 105.5t178.5 31.5q201 0 315.5 -140.5t114.5 -361.5q0 -229 -122.5 -383.5t-319.5 -154.5q-104 0 -176 31.5t-137 105.5h-4l-7 -117h-268v1475h275v-592h4zM410 522v-45q0 -133 61 -210t168 -77q119 0 180.5 83t61.5 228.5t-62.5 226.5t-183.5 81 q-109 0 -167 -78t-58 -209z" />
<glyph unicode="c" horiz-adv-x="970" d="M358 495.5q0 -151.5 80 -228.5t207 -77q129 0 236 52l28 -205q-145 -57 -338 -57q-229 0 -367 132t-138 361q0 262 162.5 404.5t400.5 142.5q184 0 291 -59l-29 -205q-111 53 -242 53q-139 0 -215 -81t-76 -232.5z" />
<glyph unicode="d" horiz-adv-x="1234" d="M821 117q-74 -74 -147.5 -105.5t-177.5 -31.5q-201 0 -315.5 140t-114.5 361q0 229 122.5 384t319.5 155q102 0 174 -33t139 -104h4v592h275v-1475h-269l-6 117h-4zM825 477v45q0 133 -61.5 210t-167.5 77q-119 0 -180.5 -83t-61.5 -228.5t62.5 -226.5t183.5 -81 q109 0 167 78t58 209z" />
<glyph unicode="e" horiz-adv-x="1069" d="M997 559q0 -82 -12 -137h-649q8 -115 82 -173.5t200 -58.5q135 0 281 60l29 -205q-147 -66 -344 -65q-238 0 -378 129t-140 364q0 248 141 397.5t377 149.5q190 0 301.5 -133t111.5 -328zM555 809q-80 0 -136.5 -55.5t-72.5 -143.5h387q-4 84 -49 141.5t-129 57.5z" />
<glyph unicode="f" horiz-adv-x="768" d="M213 1022q0 221 127 347t336 126q109 0 176 -29l-29 -200q-47 18 -110 18q-102 0 -164 -60.5t-62 -183.5v-41h246v-211h-246v-788h-274v788h-166v211h166v23z" />
<glyph unicode="g" horiz-adv-x="1230" d="M1096 999v-852q0 -274 -160 -421.5t-434 -147.5q-199 0 -357 72l29 209q162 -70 315 -70q332 0 332 305v35h-4q-74 -74 -147.5 -105.5t-177.5 -31.5q-195 0 -310.5 139t-115.5 358q0 227 122.5 379t315.5 152q102 0 174 -33t139 -104h4l6 116h269zM592 809 q-115 0 -176.5 -80t-61.5 -223.5t62.5 -223t179.5 -79.5q109 0 167 77.5t58 208.5v33q0 133 -61.5 210t-167.5 77z" />
<glyph unicode="h" horiz-adv-x="1167" d="M410 512v-512h-275v1475h275v-603h4q111 147 297 148q340 0 340 -381v-639h-275v600q0 201 -158 201q-208 0 -208 -289z" />
<glyph unicode="i" horiz-adv-x="544" d="M135 0v999h275v-999h-275zM272.5 1085q-65.5 0 -111.5 46.5t-46 112t46 111.5t111 46q63 0 110.5 -47t47.5 -111q0 -66 -46 -112t-111.5 -46z" />
<glyph unicode="j" horiz-adv-x="573" d="M301.5 1085q-65.5 0 -112 46.5t-46.5 112t46.5 111.5t111.5 46q63 0 110.5 -47t47.5 -111q0 -66 -46 -112t-111.5 -46zM438 80q0 -254 -142 -368.5t-392 -133.5l-29 209q145 18 217 80.5t72 200.5v931h274v-919z" />
<glyph unicode="k" horiz-adv-x="1067" d="M1079 999l-417 -421l448 -578h-346l-289 381h-6l-59 -64v-317h-275v1475h275v-861h6q47 66 98 129l205 256h360z" />
<glyph unicode="l" horiz-adv-x="544" d="M410 0h-275v1475h275v-1475z" />
<glyph unicode="m" horiz-adv-x="1718" d="M977 834h6q117 186 307 186q311 0 312 -371v-649h-275v610q0 190 -147 191q-174 0 -174 -330v-471h-275v610q0 190 -147 191q-174 0 -174 -330v-471h-275v999h268l7 -127h4q90 147 274 148q226 0 289 -186z" />
<glyph unicode="n" horiz-adv-x="1167" d="M410 512v-512h-275v999h268l7 -127h4q111 147 297 148q340 0 340 -381v-639h-275v600q0 201 -158 201q-208 0 -208 -289z" />
<glyph unicode="o" horiz-adv-x="1150" d="M575.5 1020q231.5 0 370.5 -148.5t139 -372t-139 -371.5t-370.5 -148t-370.5 148t-139 371.5t139 372t370.5 148.5zM575.5 190q110.5 0 166 84t55.5 225.5t-55.5 225.5t-166 84t-166 -84t-55.5 -225.5t55.5 -225.5t166 -84z" />
<glyph unicode="p" horiz-adv-x="1234" d="M414 883q74 74 146.5 105.5t178.5 31.5q201 0 315.5 -140.5t114.5 -361.5q0 -229 -122.5 -383.5t-319.5 -154.5q-104 0 -176 31.5t-137 105.5h-4v-518h-275v1400h268l7 -116h4zM410 522v-45q0 -133 61 -210t168 -77q119 0 180.5 83t61.5 228.5t-62.5 226.5t-183.5 81 q-109 0 -167 -78t-58 -209z" />
<glyph unicode="q" horiz-adv-x="1234" d="M821 117q-74 -74 -147.5 -105.5t-177.5 -31.5q-201 0 -315.5 140t-114.5 361q0 229 122.5 384t319.5 155q102 0 174 -33t139 -104h4l6 116h269v-1400h-275v518h-4zM825 477v45q0 133 -61.5 210t-167.5 77q-119 0 -180.5 -83t-61.5 -228.5t62.5 -226.5t183.5 -81 q109 0 167 78t58 209z" />
<glyph unicode="r" horiz-adv-x="733" d="M727 1020l-6 -266q-135 -6 -211 -60q-51 -37 -75.5 -106.5t-24.5 -210.5v-377h-275v999h268l7 -178h4q43 84 129 138.5t184 60.5z" />
<glyph unicode="s" horiz-adv-x="851" d="M381 383q-135 39 -203.5 109.5t-68.5 203.5q0 143 109.5 233.5t275.5 90.5q135 0 247 -45l-28 -205q-82 39 -193 39q-51 0 -89 -23.5t-38 -64.5q0 -78 96 -105q162 -45 228.5 -111.5t66.5 -191.5q0 -154 -126 -243.5t-300 -89.5q-158 0 -297 53l29 207q135 -49 264 -50 q145 0 146 86q0 72 -119 107z" />
<glyph unicode="t" horiz-adv-x="829" d="M745 999v-211h-253v-440q0 -158 139 -158q51 0 110 17l29 -201q-88 -27 -229 -26q-143 0 -233.5 74.5t-90.5 234.5v499h-170v211h170v232h275v-232h253z" />
<glyph unicode="u" horiz-adv-x="1167" d="M758 487v512h274v-999h-268l-6 127h-4q-111 -147 -297 -147q-340 0 -340 380v639h274v-600q0 -201 158 -200q209 -1 209 288z" />
<glyph unicode="v" horiz-adv-x="1044" d="M776 999h277l-385 -999h-285l-385 999h295l158 -462q53 -158 79 -297h7q25 127 81 297z" />
<glyph unicode="w" horiz-adv-x="1597" d="M1321 999h276l-342 -999h-282l-119 463q-41 172 -49 299h-6q-8 -141 -47 -297l-119 -465h-285l-342 999h295l131 -469q53 -193 62 -311h6q4 121 53 307l119 473h278l119 -471q47 -188 55 -309h6q4 119 60 309z" />
<glyph unicode="x" horiz-adv-x="1030" d="M659 518l373 -518h-336l-192 324h-6l-191 -324h-315l362 504v6l-356 489h336l174 -294h6l176 294h316l-347 -475v-6z" />
<glyph unicode="y" horiz-adv-x="1044" d="M694 72q-102 -266 -229 -372t-332 -122l-29 209q111 14 171.5 52t93.5 114l16 43l-387 1003h295l158 -462q53 -158 79 -297h7q25 127 81 297l158 462h277z" />
<glyph unicode="z" horiz-adv-x="937" d="M119 999h743v-208l-467 -576v-4h484v-211h-816v203l474 581v4h-418v211z" />
<glyph unicode="{" horiz-adv-x="722" d="M326 627q100 -10 154.5 -69.5t43.5 -158.5l-28 -241q-8 -74 38 -114t138 -40v-201q-205 0 -316.5 80t-93.5 248l29 231q10 96 -31 129t-135 37v201q94 4 135 37t31 129l-29 231q-18 168 93.5 248t316.5 80v-201q-92 0 -138.5 -39.5t-37.5 -113.5l28 -242 q10 -98 -44 -157.5t-154 -69.5v-4z" />
<glyph unicode="|" horiz-adv-x="565" d="M397 -512h-229v2048h229v-2048z" />
<glyph unicode="}" horiz-adv-x="722" d="M397 627v4q-100 10 -155.5 70.5t-42.5 156.5l28 242q8 74 -38 113.5t-138 39.5v201q205 0 316.5 -80t93.5 -248l-29 -231q-10 -96 31 -129t135 -37v-201q-94 -4 -135 -36.5t-31 -129.5l29 -231q18 -168 -93.5 -248t-316.5 -80v201q92 0 138.5 40t37.5 114l-28 241 q-12 96 43 157t155 71z" />
<glyph unicode="~" horiz-adv-x="1544" d="M725 414q-178 82 -231.5 101.5t-92.5 19.5q-96 0 -96 -187h-201q0 184 88.5 285.5t249.5 101.5q80 0 157 -23.5t220 -88.5q178 -82 231.5 -101.5t92.5 -19.5q96 0 96 186h201q0 -186 -88 -286.5t-250 -100.5q-80 0 -157 23.5t-220 89.5z" />
<glyph unicode="&#xa5;" d="M1077 1348l-272 -543h203v-168h-295v-111h295v-168h-295v-358h-275v358h-295v168h295v111h-295v168h193l-270 543h303l114 -277q68 -164 95 -287h6q20 98 92 287l115 277h286z" />
<glyph unicode="&#xaa;" horiz-adv-x="1054" d="M520 1020q207 0 310.5 -93t103.5 -263v-664h-268l-7 125h-4q-90 -145 -272 -145q-135 0 -228.5 93t-93.5 238q0 164 133.5 250t335.5 86q43 0 129 -10v18q0 74 -52 114t-146 40q-125 0 -262 -59l-29 204q166 66 350 66zM659 457v16q-57 8 -110 8q-201 0 -201 -149 q0 -63 36 -102.5t99 -39.5q176 1 176 267z" />
<glyph unicode="&#xad;" horiz-adv-x="802" d="M684 625v-201h-565v201h565z" />
<glyph unicode="&#xb2;" d="M684 434l-217 -211v-4h567v-219h-915v215l231 236q244 250 314.5 342t70.5 178q0 80 -57 129t-164 49q-129 0 -289 -64l-28 218q184 66 372 65q207 0 334 -101.5t127 -265.5q0 -147 -73.5 -262t-272.5 -305z" />
<glyph unicode="&#xb3;" d="M465 -20q-227 0 -375 79l29 217q168 -78 340 -77q119 0 197.5 45t78.5 133q0 174 -311 190v213q123 2 196.5 53.5t73.5 139.5q0 82 -62.5 129t-158.5 47q-137 0 -270 -55l-27 213q201 61 365 61q213 0 330.5 -86t117.5 -233q0 -131 -88 -214t-217 -110v-4 q156 -25 251 -109t95 -219q0 -190 -166 -301.5t-399 -111.5z" />
<glyph unicode="&#xb9;" d="M662 1348h137v-1348h-275v1034l-291 -96l-26 213z" />
<glyph unicode="&#xba;" horiz-adv-x="1150" d="M575.5 1020q231.5 0 370.5 -148.5t139 -372t-139 -371.5t-370.5 -148t-370.5 148t-139 371.5t139 372t370.5 148.5zM575.5 190q110.5 0 166 84t55.5 225.5t-55.5 225.5t-166 84t-166 -84t-55.5 -225.5t55.5 -225.5t166 -84z" />
<glyph unicode="&#xc0;" horiz-adv-x="1294" d="M295 1905h191q43 0 67 -41q68 -119 201 -324l-209 -10q-123 154 -250 375zM979 0l-129 408h-420l-127 -408h-274l479 1389h283l479 -1389h-291zM637 1135q-51 -219 -143 -508h292q-92 289 -143 508h-6z" />
<glyph unicode="&#xc2;" horiz-adv-x="1294" d="M777 2328l360 -798h-252l-233 557h-6l-236 -557h-250l361 798h256zM979 0l-129 408h-420l-127 -408h-274l479 1389h283l479 -1389h-291zM637 1135q-51 -219 -143 -508h292q-92 289 -143 508h-6z" />
<glyph unicode="&#xc3;" horiz-adv-x="1294" d="M602 1643q-178 82 -231.5 101.5t-92.5 19.5q-96 0 -96 -187h-201q0 184 88.5 285.5t249.5 101.5q80 0 157 -23.5t220 -88.5q178 -82 231.5 -101.5t92.5 -19.5q96 0 96 186h201q0 -186 -88 -286.5t-250 -100.5q-80 0 -157 23.5t-220 89.5zM979 0l-129 408h-420l-127 -408 h-274l479 1389h283l479 -1389h-291zM637 1135q-51 -219 -143 -508h292q-92 289 -143 508h-6z" />
<glyph unicode="&#xc8;" horiz-adv-x="1019" d="M186 1905h191q43 0 67 -41q68 -119 201 -324l-209 -10q-123 154 -250 375zM410 219h553v-219h-828v1389h809v-220h-534v-342h464v-219h-464v-389z" />
<glyph unicode="&#xca;" horiz-adv-x="1019" d="M668 2328l360 -798h-252l-233 557h-6l-236 -557h-250l361 798h256zM410 219h553v-219h-828v1389h809v-220h-534v-342h464v-219h-464v-389z" />
<glyph unicode="&#xcc;" horiz-adv-x="544" d="M-82 1905h191q43 0 67 -41q68 -119 201 -324l-209 -10q-123 154 -250 375zM410 0h-275v1389h275v-1389z" />
<glyph unicode="&#xce;" horiz-adv-x="544" d="M400 2328l360 -798h-252l-233 557h-6l-236 -557h-250l361 798h256zM410 0h-275v1389h275v-1389z" />
<glyph unicode="&#xd1;" horiz-adv-x="1466" d="M686 1643q-178 82 -231.5 101.5t-92.5 19.5q-96 0 -96 -187h-201q0 184 88.5 285.5t249.5 101.5q80 0 157 -23.5t220 -88.5q178 -82 231.5 -101.5t92.5 -19.5q96 0 96 186h201q0 -186 -88 -286.5t-250 -100.5q-80 0 -157 23.5t-220 89.5zM1337 1389v-1389h-387l-405 754 q-80 147 -166 364h-6q14 -252 14 -364v-754h-258v1389h389l391 -734q96 -176 178 -387h7q-14 182 -15 387v734h258z" />
<glyph unicode="&#xd2;" horiz-adv-x="1540" d="M416 1905h191q43 0 67 -41q68 -119 201 -324l-209 -10q-123 154 -250 375zM770 1407q309 0 511 -204t202 -509t-202 -509.5t-511 -204.5t-511 204.5t-202 509.5t202 509t511 204zM770 199q182 0 297 129t115 366.5t-114 365.5t-298 128t-298 -128t-114 -365.5t115 -366.5 t297 -129z" />
<glyph unicode="&#xd4;" horiz-adv-x="1540" d="M899 2328l360 -798h-252l-233 557h-6l-236 -557h-250l361 798h256zM770 1407q309 0 511 -204t202 -509t-202 -509.5t-511 -204.5t-511 204.5t-202 509.5t202 509t511 204zM770 199q182 0 297 129t115 366.5t-114 365.5t-298 128t-298 -128t-114 -365.5t115 -366.5 t297 -129z" />
<glyph unicode="&#xd5;" horiz-adv-x="1540" d="M723 1643q-178 82 -231.5 101.5t-92.5 19.5q-96 0 -96 -187h-201q0 184 88.5 285.5t249.5 101.5q80 0 157 -23.5t220 -88.5q178 -82 231.5 -101.5t92.5 -19.5q96 0 96 186h201q0 -186 -88 -286.5t-250 -100.5q-80 0 -157 23.5t-220 89.5zM770 1407q309 0 511 -204 t202 -509t-202 -509.5t-511 -204.5t-511 204.5t-202 509.5t202 509t511 204zM770 199q182 0 297 129t115 366.5t-114 365.5t-298 128t-298 -128t-114 -365.5t115 -366.5t297 -129z" />
<glyph unicode="&#xd9;" horiz-adv-x="1316" d="M307 1905h191q43 0 67 -41q68 -119 201 -324l-209 -10q-123 154 -250 375zM1194 477q0 -238 -151.5 -367.5t-383.5 -129.5q-227 0 -378.5 123.5t-151.5 334.5v951h274v-930q0 -127 75 -194.5t186 -67.5q117 0 194.5 64.5t77.5 197.5v930h258v-912z" />
<glyph unicode="&#xdb;" horiz-adv-x="1316" d="M789 2328l360 -798h-252l-233 557h-6l-236 -557h-250l361 798h256zM1194 477q0 -238 -151.5 -367.5t-383.5 -129.5q-227 0 -378.5 123.5t-151.5 334.5v951h274v-930q0 -127 75 -194.5t186 -67.5q117 0 194.5 64.5t77.5 197.5v930h258v-912z" />
<glyph unicode="&#xe0;" horiz-adv-x="1054" d="M166 1518h191q43 0 67 -41q68 -119 201 -324l-209 -10q-123 154 -250 375zM520 1020q207 0 310.5 -93t103.5 -263v-664h-268l-7 125h-4q-90 -145 -272 -145q-135 0 -228.5 93t-93.5 238q0 164 133.5 250t335.5 86q43 0 129 -10v18q0 74 -52 114t-146 40q-125 0 -262 -59 l-29 204q166 66 350 66zM659 457v16q-57 8 -110 8q-201 0 -201 -149q0 -63 36 -102.5t99 -39.5q176 1 176 267z" />
<glyph unicode="&#xe2;" horiz-adv-x="1054" d="M650 1941l360 -798h-252l-233 557h-6l-236 -557h-250l361 798h256zM520 1020q207 0 310.5 -93t103.5 -263v-664h-268l-7 125h-4q-90 -145 -272 -145q-135 0 -228.5 93t-93.5 238q0 164 133.5 250t335.5 86q43 0 129 -10v18q0 74 -52 114t-146 40q-125 0 -262 -59l-29 204 q166 66 350 66zM659 457v16q-57 8 -110 8q-201 0 -201 -149q0 -63 36 -102.5t99 -39.5q176 1 176 267z" />
<glyph unicode="&#xe3;" horiz-adv-x="1054" d="M473 1256q-178 82 -231.5 101.5t-92.5 19.5q-96 0 -96 -187h-201q0 184 88.5 285.5t249.5 101.5q80 0 157 -23.5t220 -88.5q178 -82 231.5 -101.5t92.5 -19.5q96 0 96 186h201q0 -186 -88 -286.5t-250 -100.5q-80 0 -157 23.5t-220 89.5zM520 1020q207 0 310.5 -93 t103.5 -263v-664h-268l-7 125h-4q-90 -145 -272 -145q-135 0 -228.5 93t-93.5 238q0 164 133.5 250t335.5 86q43 0 129 -10v18q0 74 -52 114t-146 40q-125 0 -262 -59l-29 204q166 66 350 66zM659 457v16q-57 8 -110 8q-201 0 -201 -149q0 -63 36 -102.5t99 -39.5 q176 1 176 267z" />
<glyph unicode="&#xe8;" horiz-adv-x="1069" d="M229 1518h191q43 0 67 -41q68 -119 201 -324l-209 -10q-123 154 -250 375zM997 559q0 -82 -12 -137h-649q8 -115 82 -173.5t200 -58.5q135 0 281 60l29 -205q-147 -66 -344 -65q-238 0 -378 129t-140 364q0 248 141 397.5t377 149.5q190 0 301.5 -133t111.5 -328z M555 809q-80 0 -136.5 -55.5t-72.5 -143.5h387q-4 84 -49 141.5t-129 57.5z" />
<glyph unicode="&#xea;" horiz-adv-x="1069" d="M711 1941l360 -798h-252l-233 557h-6l-236 -557h-250l361 798h256zM997 559q0 -82 -12 -137h-649q8 -115 82 -173.5t200 -58.5q135 0 281 60l29 -205q-147 -66 -344 -65q-238 0 -378 129t-140 364q0 248 141 397.5t377 149.5q190 0 301.5 -133t111.5 -328zM555 809 q-80 0 -136.5 -55.5t-72.5 -143.5h387q-4 84 -49 141.5t-129 57.5z" />
<glyph unicode="&#xec;" horiz-adv-x="544" d="M-82 1899h191q43 0 67 -41q68 -119 201 -324l-209 -10q-123 154 -250 375zM135 0v999h275v-999h-275zM272.5 1085q-65.5 0 -111.5 46.5t-46 112t46 111.5t111 46q63 0 110.5 -47t47.5 -111q0 -66 -46 -112t-111.5 -46z" />
<glyph unicode="&#xee;" horiz-adv-x="544" d="M400 2322l360 -798h-252l-233 557h-6l-236 -557h-250l361 798h256zM135 0v999h275v-999h-275zM272.5 1085q-65.5 0 -111.5 46.5t-46 112t46 111.5t111 46q63 0 110.5 -47t47.5 -111q0 -66 -46 -112t-111.5 -46z" />
<glyph unicode="&#xf1;" horiz-adv-x="1167" d="M545 1256q-178 82 -231.5 101.5t-92.5 19.5q-96 0 -96 -187h-201q0 184 88.5 285.5t249.5 101.5q80 0 157 -23.5t220 -88.5q178 -82 231.5 -101.5t92.5 -19.5q96 0 96 186h201q0 -186 -88 -286.5t-250 -100.5q-80 0 -157 23.5t-220 89.5zM410 512v-512h-275v999h268 l7 -127h4q111 147 297 148q340 0 340 -381v-639h-275v600q0 201 -158 201q-208 0 -208 -289z" />
<glyph unicode="&#xf2;" horiz-adv-x="1150" d="M221 1518h191q43 0 67 -41q68 -119 201 -324l-209 -10q-123 154 -250 375zM575.5 1020q231.5 0 370.5 -148.5t139 -372t-139 -371.5t-370.5 -148t-370.5 148t-139 371.5t139 372t370.5 148.5zM575.5 190q110.5 0 166 84t55.5 225.5t-55.5 225.5t-166 84t-166 -84 t-55.5 -225.5t55.5 -225.5t166 -84z" />
<glyph unicode="&#xf4;" horiz-adv-x="1150" d="M703 1941l360 -798h-252l-233 557h-6l-236 -557h-250l361 798h256zM575.5 1020q231.5 0 370.5 -148.5t139 -372t-139 -371.5t-370.5 -148t-370.5 148t-139 371.5t139 372t370.5 148.5zM575.5 190q110.5 0 166 84t55.5 225.5t-55.5 225.5t-166 84t-166 -84t-55.5 -225.5 t55.5 -225.5t166 -84z" />
<glyph unicode="&#xf5;" horiz-adv-x="1150" d="M528 1256q-178 82 -231.5 101.5t-92.5 19.5q-96 0 -96 -187h-201q0 184 88.5 285.5t249.5 101.5q80 0 157 -23.5t220 -88.5q178 -82 231.5 -101.5t92.5 -19.5q96 0 96 186h201q0 -186 -88 -286.5t-250 -100.5q-80 0 -157 23.5t-220 89.5zM575.5 1020 q231.5 0 370.5 -148.5t139 -372t-139 -371.5t-370.5 -148t-370.5 148t-139 371.5t139 372t370.5 148.5zM575.5 190q110.5 0 166 84t55.5 225.5t-55.5 225.5t-166 84t-166 -84t-55.5 -225.5t55.5 -225.5t166 -84z" />
<glyph unicode="&#xf9;" horiz-adv-x="1167" d="M219 1518h191q43 0 67 -41q68 -119 201 -324l-209 -10q-123 154 -250 375zM758 487v512h274v-999h-268l-6 127h-4q-111 -147 -297 -147q-340 0 -340 380v639h274v-600q0 -201 158 -200q209 -1 209 288z" />
<glyph unicode="&#xfb;" horiz-adv-x="1167" d="M703 1941l360 -798h-252l-233 557h-6l-236 -557h-250l361 798h256zM758 487v512h274v-999h-268l-6 127h-4q-111 -147 -297 -147q-340 0 -340 380v639h274v-600q0 -201 158 -200q209 -1 209 288z" />
<glyph unicode="&#x152;" horiz-adv-x="2560" d="M1950 219h553v-219h-828v1389h809v-220h-534v-342h464v-219h-464v-389zM770 1407q309 0 511 -204t202 -509t-202 -509.5t-511 -204.5t-511 204.5t-202 509.5t202 509t511 204zM770 199q182 0 297 129t115 366.5t-114 365.5t-298 128t-298 -128t-114 -365.5t115 -366.5 t297 -129z" />
<glyph unicode="&#x153;" horiz-adv-x="2220" d="M2148 559q0 -82 -12 -137h-649q8 -115 82 -173.5t200 -58.5q135 0 281 60l29 -205q-147 -66 -344 -65q-238 0 -378 129t-140 364q0 248 141 397.5t377 149.5q190 0 301.5 -133t111.5 -328zM1706 809q-80 0 -136.5 -55.5t-72.5 -143.5h387q-4 84 -49 141.5t-129 57.5z M575.5 1020q231.5 0 370.5 -148.5t139 -372t-139 -371.5t-370.5 -148t-370.5 148t-139 371.5t139 372t370.5 148.5zM575.5 190q110.5 0 166 84t55.5 225.5t-55.5 225.5t-166 84t-166 -84t-55.5 -225.5t55.5 -225.5t166 -84z" />
<glyph unicode="&#x2c6;" horiz-adv-x="1165" d="M711 1380l360 -798h-252l-233 557h-6l-236 -557h-250l361 798h256z" />
<glyph unicode="&#x2dc;" horiz-adv-x="401" d="M-47 236q-178 82 -231.5 101.5t-92.5 19.5q-96 0 -96 -187h-201q0 184 88.5 285.5t249.5 101.5q80 0 157 -23.5t220 -88.5q178 -82 231.5 -101.5t92.5 -19.5q96 0 96 186h201q0 -186 -88 -286.5t-250 -100.5q-80 0 -157 23.5t-220 89.5z" />
<glyph unicode="&#x2000;" horiz-adv-x="1163" />
<glyph unicode="&#x2001;" horiz-adv-x="2328" />
<glyph unicode="&#x2002;" horiz-adv-x="1163" />
<glyph unicode="&#x2003;" horiz-adv-x="2328" />
<glyph unicode="&#x2004;" horiz-adv-x="776" />
<glyph unicode="&#x2005;" horiz-adv-x="581" />
<glyph unicode="&#x2006;" horiz-adv-x="387" />
<glyph unicode="&#x2007;" horiz-adv-x="387" />
<glyph unicode="&#x2008;" horiz-adv-x="290" />
<glyph unicode="&#x2009;" horiz-adv-x="464" />
<glyph unicode="&#x200a;" horiz-adv-x="129" />
<glyph unicode="&#x2010;" horiz-adv-x="802" d="M684 625v-201h-565v201h565z" />
<glyph unicode="&#x2011;" horiz-adv-x="802" d="M684 625v-201h-565v201h565z" />
<glyph unicode="&#x2012;" horiz-adv-x="802" d="M684 625v-201h-565v201h565z" />
<glyph unicode="&#x2013;" horiz-adv-x="1024" d="M119 424v201h786v-201h-786z" />
<glyph unicode="&#x2014;" horiz-adv-x="2048" d="M119 424v201h1810v-201h-1810z" />
<glyph unicode="&#x2018;" horiz-adv-x="626" d="M408 948q-25 -100 -148 -100h-170q88 268 215 567l244 27q-88 -275 -141 -494z" />
<glyph unicode="&#x2019;" horiz-adv-x="626" d="M219 1341q25 100 148 101h170q-88 -268 -215 -568l-244 -26q92 286 141 493z" />
<glyph unicode="&#x201c;" horiz-adv-x="1067" d="M848 948q-25 -100 -148 -100h-170q88 268 215 567l244 27q-88 -275 -141 -494zM408 948q-25 -100 -148 -100h-170q88 268 215 567l244 27q-88 -275 -141 -494z" />
<glyph unicode="&#x201d;" horiz-adv-x="1067" d="M219 1341q25 100 148 101h170q-88 -268 -215 -568l-244 -26q92 286 141 493zM659 1341q25 100 148 101h170q-88 -268 -215 -568l-244 -26q92 286 141 493z" />
<glyph unicode="&#x2026;" horiz-adv-x="1536" d="M1280 303q68 0 115 -47t47 -114.5t-47 -114.5t-115 -47t-115 47t-47 114.5t47 114.5t115 47zM768 303q68 0 115 -47t47 -114.5t-47 -114.5t-115 -47t-115 47t-47 114.5t47 114.5t115 47zM256 303q68 0 115 -47t47 -114.5t-47 -114.5t-115 -47t-115 47t-47 114.5t47 114.5 t115 47z" />
<glyph unicode="&#x202f;" horiz-adv-x="464" />
<glyph unicode="&#x2039;" horiz-adv-x="962" d="M283 539l571 -271v-258l-791 402v258l791 401v-258l-571 -268v-6z" />
<glyph unicode="&#x203a;" horiz-adv-x="962" d="M680 539v6l-571 268v258l790 -401v-258l-790 -402v258z" />
<glyph unicode="&#x205f;" horiz-adv-x="581" />
<glyph unicode="&#x2122;" horiz-adv-x="2951" d="M2433 1339h336l47 -1339h-275l-12 670v52q0 153 10 275h-6q-35 -170 -92 -327l-234 -629h-286l-228 629q-70 193 -90 319h-6q12 -98 12 -222q0 -47 -2 -97l-12 -670h-258l47 1339h336l238 -669q102 -287 112 -400h6q10 104 115 400zM1178 1389v-220h-439v-1169h-274v1169 h-434v220h1147z" />
<glyph unicode="&#xe000;" horiz-adv-x="1000" d="M0 1000h1000v-1000h-1000v1000z" />
<glyph unicode="&#xfb01;" horiz-adv-x="1312" d="M903 0v999h275v-999h-275zM1040.5 1085q-65.5 0 -111.5 46.5t-46 112t46 111.5t111 46q63 0 110.5 -47t47.5 -111q0 -66 -46 -112t-111.5 -46zM213 1022q0 221 127 347t336 126q109 0 176 -29l-29 -200q-47 18 -110 18q-102 0 -164 -60.5t-62 -183.5v-41h246v-211h-246 v-788h-274v788h-166v211h166v23z" />
<glyph unicode="&#xfb02;" horiz-adv-x="1312" d="M1178 0h-275v1475h275v-1475zM213 1022q0 221 127 347t336 126q109 0 176 -29l-29 -200q-47 18 -110 18q-102 0 -164 -60.5t-62 -183.5v-41h246v-211h-246v-788h-274v788h-166v211h166v23z" />
<glyph unicode="&#xfb03;" horiz-adv-x="2080" d="M1671 0v999h275v-999h-275zM1808.5 1085q-65.5 0 -111.5 46.5t-46 112t46 111.5t111 46q63 0 110.5 -47t47.5 -111q0 -66 -46 -112t-111.5 -46zM981 1022q0 221 127 347t336 126q109 0 176 -29l-29 -200q-47 18 -110 18q-102 0 -164 -60.5t-62 -183.5v-41h246v-211h-246 v-788h-274v788h-166v211h166v23zM213 1022q0 221 127 347t336 126q109 0 176 -29l-29 -200q-47 18 -110 18q-102 0 -164 -60.5t-62 -183.5v-41h246v-211h-246v-788h-274v788h-166v211h166v23z" />
<glyph unicode="&#xfb04;" horiz-adv-x="2080" d="M1946 0h-275v1475h275v-1475zM981 1022q0 221 127 347t336 126q109 0 176 -29l-29 -200q-47 18 -110 18q-102 0 -164 -60.5t-62 -183.5v-41h246v-211h-246v-788h-274v788h-166v211h166v23zM213 1022q0 221 127 347t336 126q109 0 176 -29l-29 -200q-47 18 -110 18 q-102 0 -164 -60.5t-62 -183.5v-41h246v-211h-246v-788h-274v788h-166v211h166v23z" />
</font>
</defs>
</svg>
